# xmcd
#
# Track frame offsets: 
#        150
#        16284
#        34036
#        49753
#        72002
#        91721
#        109515
#        130472
#        148900
#        166722
#        189197
#        208268
#
# Disc length: 3013 seconds
#
# Revision: 2
# Processed by: cddbd v1.5.2PL0 Copyright (c) Steve Scherf et al.
# Submitted via: ExactAudioCopy v0.99pb4
#
DISCID=9c0bc30c
DTITLE=Kelley Hunt - New Shade Of Blue
DYEAR=2004
DGENRE=Blues
TTITLE0=Waking Up Slow
TTITLE1=Temptation
TTITLE2=Deal with It (feat. Delbert McClinton)
TTITLE3=That's What Makes You Strong
TTITLE4=Long Way Home
TTITLE5=Why Do I Love You
TTITLE6=Darkness
TTITLE7=The Word
TTITLE8=New Shade of Blue
TTITLE9=When Love Comes Through
TTITLE10=It Ain't Over When It's Over
TTITLE11=Would You Still Be There
EXTD=YEAR: 2004
EXTT0=
EXTT1=
EXTT2=
EXTT3=
EXTT4=
EXTT5=
EXTT6=
EXTT7=
EXTT8=
EXTT9=
EXTT10=
EXTT11=
PLAYORDER=
